<?xml version="1.0" encoding="iso-8859-1"?>
<!-- Generator: Adobe Illustrator 19.0.0, SVG Export Plug-In . SVG Version: 6.00 Build 0)  -->
<svg version="1.1" id="Capa_1" xmlns="http://www.w3.org/2000/svg" xmlns:xlink="http://www.w3.org/1999/xlink" x="0px" y="0px"
	 viewBox="0 0 512 512" style="enable-background:new 0 0 512 512;" xml:space="preserve">
<path style="fill:#E7ECED;" d="M441.379,8.828H70.621H26.492C11.864,8.828,0,20.692,0,35.319v308.957h70.621h132.414h105.931
	h132.414H512V35.319c0-14.627-11.864-26.492-26.492-26.492H441.379z"/>
<rect x="35.31" y="44.138" style="fill:#28384C;" width="441.379" height="282.483"/>
<polygon style="fill:#E7ECED;" points="114.759,79.448 114.759,247.172 324.917,247.172 361.931,210.079 361.931,79.448 "/>
<path style="fill:#AFB6BB;" d="M485.508,397.241H26.492C11.864,397.241,0,385.377,0,370.75v-44.129h512v44.129
	C512,385.377,500.136,397.241,485.508,397.241z"/>
<path style="fill:#FFFFFF;" d="M282.483,370.759h-52.966c-4.873,0-8.828-3.955-8.828-8.828s3.955-8.828,8.828-8.828h52.966
	c4.873,0,8.828,3.955,8.828,8.828S287.356,370.759,282.483,370.759z"/>
<path style="fill:#AFB6BB;" d="M370.759,503.172H141.241c-9.754,0-17.655-7.901-17.655-17.655l0,0
	c0-9.754,7.901-17.655,17.655-17.655h229.517c9.754,0,17.655,7.901,17.655,17.655l0,0
	C388.414,495.272,380.513,503.172,370.759,503.172z"/>
<path style="fill:#6C797A;" d="M300.138,397.241h-88.276c0,39.036-13.93,70.621-52.966,70.621h194.207
	C314.068,467.862,300.138,436.277,300.138,397.241z"/>
<path style="fill:#7383BF;" d="M406.749,266.346l-26.721-26.721c-0.459-0.459-0.459-1.201,0-1.66l17.267-17.276l-88.276-26.483
	l26.483,88.276l16.825-16.825c1.05-1.05,2.754-1.05,3.814,0l25.644,25.653L406.749,266.346z"/>
<rect x="114.759" y="79.448" style="fill:#556080;" width="247.172" height="44.138"/>
<rect x="150.069" y="176.552" style="fill:#DD352E;" width="70.621" height="35.31"/>
<g>
</g>
<g>
</g>
<g>
</g>
<g>
</g>
<g>
</g>
<g>
</g>
<g>
</g>
<g>
</g>
<g>
</g>
<g>
</g>
<g>
</g>
<g>
</g>
<g>
</g>
<g>
</g>
<g>
</g>
</svg>
